<svg width="1920" height="280" viewBox="0 0 1920 280" fill="none" xmlns="http://www.w3.org/2000/svg">
<path d="M311.487 273H229.787L229.027 151.78L171.267 249.06H131.747L73.987 155.96V273H-7.71305V6.99998H66.007L152.647 148.74L237.007 6.99998H310.727L311.487 273ZM444.146 279.08C362.446 279.08 314.566 233.1 314.566 153.3V6.99998H404.246V150.64C404.246 191.3 419.826 206.5 444.906 206.5C469.986 206.5 485.566 191.3 485.566 150.64V6.99998H573.726V153.3C573.726 233.1 525.846 279.08 444.146 279.08ZM576.834 273V6.99998H666.514V203.46H786.594V273H576.834ZM945.885 6.99998H1035.57V273H945.885V174.96H863.045V273H773.365V6.99998H863.045V101.24H945.885V6.99998ZM1128.94 205.36H1261.94V273H1040.78V6.99998H1257V74.64H1128.94V105.8H1241.42V170.4H1128.94V205.36ZM1417.68 273L1372.46 206.12H1348.14V273H1258.46V6.99998H1386.52C1460.62 6.99998 1507.74 45.76 1507.74 107.32C1507.74 145.7 1489.5 174.58 1457.58 190.92L1513.44 273H1417.68ZM1417.3 107.32C1417.3 87.94 1405.52 76.16 1380.82 76.16H1348.14V138.48H1380.82C1405.52 138.48 1417.3 126.7 1417.3 107.32ZM1591.76 205.36H1724.76V273H1503.6V6.99998H1719.82V74.64H1591.76V105.8H1704.24V170.4H1591.76V205.36ZM1820.47 279.08C1776.01 279.08 1731.17 268.06 1704.57 251.72L1733.45 186.36C1758.53 201.18 1791.97 210.68 1821.23 210.68C1846.69 210.68 1855.81 205.36 1855.81 196.24C1855.81 162.8 1708.75 189.78 1708.75 90.6C1708.75 41.2 1750.17 0.919992 1832.63 0.919992C1868.35 0.919992 1905.21 8.51998 1932.95 24.1L1905.97 89.08C1879.75 75.78 1855.05 69.32 1831.87 69.32C1805.65 69.32 1797.29 76.92 1797.29 86.04C1797.29 117.96 1944.35 91.36 1944.35 189.4C1944.35 238.04 1902.93 279.08 1820.47 279.08Z" fill="url(#paint0_linear_1_183)" fill-opacity="0.08"/>
<defs>
<linearGradient id="paint0_linear_1_183" x1="960" y1="-95" x2="960" y2="356" gradientUnits="userSpaceOnUse">
<stop stop-color="#666666" stop-opacity="0"/>
<stop offset="1"/>
</linearGradient>
</defs>
</svg>
