<svg width="1920" height="650" viewBox="0 0 1920 650" fill="none" xmlns="http://www.w3.org/2000/svg">
<path d="M342.487 266H260.787L260.027 144.78L202.267 242.06H162.747L104.987 148.96V266H23.287V-1.81198e-05H97.007L183.647 141.74L268.007 -1.81198e-05H341.727L342.487 266ZM475.146 272.08C393.446 272.08 345.566 226.1 345.566 146.3V-1.81198e-05H435.246V143.64C435.246 184.3 450.826 199.5 475.906 199.5C500.986 199.5 516.566 184.3 516.566 143.64V-1.81198e-05H604.726V146.3C604.726 226.1 556.846 272.08 475.146 272.08ZM607.834 266V-1.81198e-05H697.514V196.46H817.594V266H607.834ZM976.885 -1.81198e-05H1066.57V266H976.885V167.96H894.045V266H804.365V-1.81198e-05H894.045V94.24H976.885V-1.81198e-05ZM1159.94 198.36H1292.94V266H1071.78V-1.81198e-05H1288V67.64H1159.94V98.8H1272.42V163.4H1159.94V198.36ZM1448.68 266L1403.46 199.12H1379.14V266H1289.46V-1.81198e-05H1417.52C1491.62 -1.81198e-05 1538.74 38.76 1538.74 100.32C1538.74 138.7 1520.5 167.58 1488.58 183.92L1544.44 266H1448.68ZM1448.3 100.32C1448.3 80.94 1436.52 69.16 1411.82 69.16H1379.14V131.48H1411.82C1436.52 131.48 1448.3 119.7 1448.3 100.32ZM1622.76 198.36H1755.76V266H1534.6V-1.81198e-05H1750.82V67.64H1622.76V98.8H1735.24V163.4H1622.76V198.36ZM1851.47 272.08C1807.01 272.08 1762.17 261.06 1735.57 244.72L1764.45 179.36C1789.53 194.18 1822.97 203.68 1852.23 203.68C1877.69 203.68 1886.81 198.36 1886.81 189.24C1886.81 155.8 1739.75 182.78 1739.75 83.6C1739.75 34.2 1781.17 -6.08001 1863.63 -6.08001C1899.35 -6.08001 1936.21 1.51998 1963.95 17.1L1936.97 82.08C1910.75 68.78 1886.05 62.32 1862.87 62.32C1836.65 62.32 1828.29 69.92 1828.29 79.04C1828.29 110.96 1975.35 84.36 1975.35 182.4C1975.35 231.04 1933.93 272.08 1851.47 272.08Z" fill="black" fill-opacity="0.08"/>
<path d="M106.032 650L88.172 603.64H-12.908L-30.768 650H-121.968L-5.68805 384H82.472L198.752 650H106.032ZM11.792 539.04H63.472L37.632 472.16L11.792 539.04ZM175.064 650V384H264.744V580.46H384.824V650H175.064ZM404.492 650V453.54H326.592V384H572.072V453.54H494.172V650H404.492ZM743.126 650L725.266 603.64H624.186L606.326 650H515.126L631.406 384H719.566L835.846 650H743.126ZM648.886 539.04H700.566L674.726 472.16L648.886 539.04ZM1016.14 384C1090.24 384 1137.36 422.76 1137.36 484.32C1137.36 545.88 1090.24 584.64 1016.14 584.64H977.764V650H888.084V384H1016.14ZM1010.44 515.48C1035.14 515.48 1046.92 503.7 1046.92 484.32C1046.92 464.94 1035.14 453.16 1010.44 453.16H977.764V515.48H1010.44ZM1216.94 582.36H1349.94V650H1128.78V384H1345V451.64H1216.94V482.8H1329.42V547.4H1216.94V582.36ZM1505.68 650L1460.46 583.12H1436.14V650H1346.46V384H1474.52C1548.62 384 1595.74 422.76 1595.74 484.32C1595.74 522.7 1577.5 551.58 1545.58 567.92L1601.44 650H1505.68ZM1505.3 484.32C1505.3 464.94 1493.52 453.16 1468.82 453.16H1436.14V515.48H1468.82C1493.52 515.48 1505.3 503.7 1505.3 484.32ZM1807.82 451.64H1681.28V497.24H1792.24V564.88H1681.28V650H1591.6V384H1807.82V451.64ZM1935.76 656.08C1849.12 656.08 1785.66 597.56 1785.66 517C1785.66 436.44 1849.12 377.92 1935.76 377.92C2022.4 377.92 2085.86 436.44 2085.86 517C2085.86 597.56 2022.4 656.08 1935.76 656.08ZM1935.76 583.5C1968.82 583.5 1995.42 558.42 1995.42 517C1995.42 475.58 1968.82 450.5 1935.76 450.5C1902.7 450.5 1876.1 475.58 1876.1 517C1876.1 558.42 1902.7 583.5 1935.76 583.5Z" fill="black" fill-opacity="0.08"/>
</svg>
